<?xml version="1.0" encoding="UTF-8" standalone="no"?>
<svg viewBox="0 0 1200 900"
 xmlns="http://www.w3.org/2000/svg" xmlns:xlink="http://www.w3.org/1999/xlink"  version="1.2" baseProfile="tiny">
<title>Qt SVG Document</title>
<desc>Generated with Qt</desc>
<defs>
</defs>
<g fill="none" stroke="black" stroke-width="1" fill-rule="evenodd" stroke-linecap="square" stroke-linejoin="bevel" >

<g fill="#ffffff" fill-opacity="1" stroke="none" transform="matrix(1,0,0,1,0,0)"
font-family="Ubuntu" font-size="12.2222" font-weight="400" font-style="normal" 
>
<rect x="0" y="0" width="1200" height="900"/>
</g>

<g fill="none" stroke="#000000" stroke-opacity="1" stroke-width="1" stroke-linecap="square" stroke-linejoin="bevel" transform="matrix(1,0,0,1,0,0)"
font-family="Ubuntu" font-size="12.2222" font-weight="400" font-style="normal" 
>
</g>

<g fill="none" stroke="#000000" stroke-opacity="1" stroke-width="1" stroke-linecap="square" stroke-linejoin="bevel" transform="matrix(0.833333,0,0,0.833333,0,0)"
font-family="Ubuntu" font-size="12.2222" font-weight="400" font-style="normal" 
>
</g>

<g fill="#ffffff" fill-opacity="1" stroke="none" transform="matrix(0.833333,0,0,0.833333,0,0)"
font-family="Ubuntu" font-size="12.2222" font-weight="400" font-style="normal" 
>
<rect x="42" y="0" width="1397" height="1053"/>
</g>

<g fill="none" stroke="#000000" stroke-opacity="1" stroke-width="1" stroke-linecap="square" stroke-linejoin="bevel" transform="matrix(0.833333,0,0,0.833333,0,0)"
font-family="Ubuntu" font-size="12.2222" font-weight="400" font-style="normal" 
>
</g>

<g fill="none" stroke="#000000" stroke-opacity="1" stroke-width="1" stroke-linecap="square" stroke-linejoin="bevel" transform="matrix(0.833333,0,0,0.833333,0,0)"
font-family="Ubuntu" font-size="12.2222" font-weight="400" font-style="normal" 
>
</g>

<g fill="none" stroke="#000000" stroke-opacity="1" stroke-width="1" stroke-linecap="square" stroke-linejoin="bevel" transform="matrix(0.833333,0,0,0.833333,0,0)"
font-family="Ubuntu" font-size="12.2222" font-weight="400" font-style="normal" 
>
</g>

<g fill="none" stroke="#000000" stroke-opacity="1" stroke-width="1" stroke-linecap="square" stroke-linejoin="bevel" transform="matrix(0.833333,0,0,0.833333,0,0)"
font-family="Ubuntu" font-size="12.2222" font-weight="400" font-style="normal" 
>
</g>

<g fill="none" stroke="#d62728" stroke-opacity="1" stroke-width="1.3" stroke-linecap="square" stroke-linejoin="bevel" transform="matrix(0.833333,0,0,0.833333,0,0)"
font-family="Ubuntu" font-size="12.2222" font-weight="400" font-style="normal" 
>
<polyline fill="none" vector-effect="none" points="43,1018.65 44.0145,1018.65 45.0298,1018.65 46.0448,1018.65 47.0591,1019.51 48.0735,1019.51 49.0875,1019.51 50.102,1019.51 51.1163,1019.51 52.1308,1025.33 53.1453,1025.33 54.1598,1025.33 55.1747,1025.33 56.189,1025.33 57.2042,1017.24 58.2184,1017.24 59.2327,1017.24 60.2471,1016.88 61.2618,1022.85 62.2762,1022.7 63.2909,1022.7 64.3053,1022.7 65.3201,1022.7 66.3357,1008.86 67.3507,1008.86 68.3643,1008.86 69.3788,1008.86 70.3927,1008.86 71.4071,1008.86 72.422,1015.88 73.4363,1017.79 74.4509,1017.79 75.4653,1017.79 76.4798,1017.79 77.4943,1017.79 78.5088,1017.79 79.5235,1017.79 80.5381,1017.79 81.5527,1017.79 82.5674,1017.79 83.5818,1017.79 84.5962,1017.79 85.6108,1017.79 86.6256,1017.79 87.6409,998.15 88.6554,998.15 89.6693,999.386 90.6839,999.386 91.6983,999.386 92.7128,999.386 93.7272,1002.04 94.7419,1002.04 95.7566,1004.75 96.7712,1004.75 97.7854,1004.75 98.8,1020.42 99.8149,1020.42 100.829,1020.42 101.843,1020.42 102.858,1014.08 103.873,1014.08 104.887,1014.08 105.902,1014.08 106.916,1014.08 107.931,1014.08 108.945,1014.08 109.96,1019.09 110.974,1019.09 111.989,1025.04 113.005,1025.04 114.019,1025.04 115.034,1021.34 116.048,1021.34 117.062,1021.34 118.077,1021.34 119.091,1021.34 120.105,1017.82 121.12,1017.82 122.134,1026.98 123.149,1026.98 124.164,1026.98 125.178,1026.98 126.193,1026.98 127.207,1016.3 128.222,1022.48 129.236,991.123 130.251,991.123 131.265,1013.69 132.28,1013.69 133.296,1020.87 134.31,1020.87 135.324,1020.87 136.338,1020.87 137.353,1020.87 138.368,1020.87 139.382,1020.87 140.396,1015.4 141.411,1015.4 142.425,1015.4 143.44,1015.4 144.454,1015.4 145.469,1015.4 146.483,1015.4 147.498,1015.4 148.513,1015.4 149.527,1019.6 150.542,1019.6 151.556,1019.6 152.571,1019.6 153.586,1019.6 154.601,1007.23 155.616,1021.97 156.63,1021.97 157.644,1013.43 158.658,1020.2 159.673,1020.2 160.687,1020.2 161.702,1020.2 162.717,1020.78 163.732,1020.78 164.746,1020.78 165.76,1020.78 166.774,1020.78 167.789,1020.78 168.803,1019.5 169.818,1012.5 170.833,1012.5 171.848,1012.5 172.862,1012.5 173.878,1012.5 174.891,925.464 175.906,925.464 176.92,896.733 177.935,893.21 178.949,884.636 179.964,884.636 180.978,956.298 181.993,944.555 183.007,944.555 184.022,944.555 185.037,944.555 186.051,943.359 187.065,951.017 188.08,950.91 189.094,938.996 190.109,938.996 191.124,938.996 192.139,938.996 193.153,938.996 194.167,934.81 195.182,932.923 196.196,932.923 197.211,932.923 198.226,939.316 199.24,937.078 200.254,937.078 201.269,937.078 202.284,925.952 203.298,922.857 204.313,909.822 205.327,879.79 206.342,890.561 207.356,901.258 208.371,877.952 209.385,881.335 210.4,881.335 211.415,881.335 212.43,881.335 213.444,881.335 214.458,867.456 215.473,867.456 216.487,867.456 217.502,867.456 218.516,850.004 219.531,850.004 220.545,826.504 221.56,826.504 222.574,826.504 223.589,826.504 224.603,826.504 225.618,826.504 226.633,825.505 227.647,825.505 228.662,825.505 229.676,825.505 230.692,825.505 231.706,825.505 232.72,648.512 233.735,648.512 234.749,646.999 235.764,646.999 236.778,646.999 237.793,646.999 238.807,672.634 239.822,672.634 240.836,645.174 241.851,645.174 242.865,645.174 243.88,645.174 244.894,645.174 245.909,693.218 246.924,634.431 247.938,634.431 248.953,620.04 249.968,620.04 250.983,620.04 251.996,620.04 253.011,620.04 254.026,620.04 255.04,611.229 256.055,637.491 257.069,637.491 258.084,637.491 259.098,637.491 260.113,637.491 261.127,616.211 262.142,633.832 263.156,639.51 264.171,612.036 265.185,606.004 266.2,606.004 267.214,606.004 268.229,584.734 269.245,569.21 270.259,583.944 271.274,583.944 272.287,569.281 273.302,529.849 274.316,529.849 275.331,529.849 276.346,529.849 277.36,559.96 278.374,566.226 279.389,574.152 280.404,583.672 281.418,583.672 282.433,583.672 283.447,583.672 284.462,573.439 285.476,573.439 286.491,573.439 287.505,586.58 288.52,584.73 289.535,583.504 290.549,599.679 291.564,599.679 292.579,599.679 293.593,599.679 294.607,599.679 295.622,613.125 296.636,613.125 297.651,613.125 298.665,613.125 299.68,585.914 300.694,585.914 301.709,585.914 302.723,604.054 303.738,597.498 304.753,597.498 305.767,597.498 306.782,597.498 307.796,597.498 308.811,597.498 309.825,597.498 310.84,631.242 311.854,631.242 312.87,631.759 313.884,631.759 314.899,631.759 315.913,631.759 316.927,640.611 317.942,643.45 318.956,643.45 319.971,651.736 320.985,648.736 322,648.736 323.015,648.736 324.029,675.092 325.044,675.092 326.058,650.143 327.073,650.143 328.087,650.143 329.102,672.869 330.116,672.869 331.131,651.854 332.146,636.693 333.161,602.745 334.175,581.946 335.19,581.946 336.204,586.142 337.219,586.142 338.233,586.142 339.248,586.142 340.262,586.142 341.276,606.234 342.291,606.234 343.305,603.575 344.32,603.575 345.335,603.575 346.349,603.575 347.364,606.025 348.378,665.721 349.393,665.721 350.407,665.721 351.423,637.045 352.437,637.045 353.451,637.045 354.466,633.799 355.48,631.995 356.495,631.995 357.509,631.995 358.524,631.995 359.538,631.995 360.553,662.615 361.567,662.615 362.582,676.016 363.596,676.016 364.611,677.539 365.626,677.539 366.64,677.539 367.654,688.95 368.669,688.95 369.684,691.3 370.699,693.268 371.713,693.268 372.728,693.268 373.742,693.268 374.757,744.376 375.771,757.088 376.785,757.088 377.8,778.286 378.814,778.286 379.829,788.154 380.844,788.154 381.858,781.946 382.873,781.946 383.887,786.413 384.902,770.612 385.916,789.663 386.931,785.136 387.945,785.136 388.96,789.081 389.974,789.081 390.989,789.081 392.003,789.081 393.019,789.081 394.033,770.541 395.047,773.559 396.062,773.559 397.077,765.375 398.091,765.375 399.105,765.375 400.12,765.375 401.134,765.375 402.149,765.375 403.163,765.375 404.178,765.748 405.193,765.748 406.207,765.748 407.222,753.159 408.236,753.159 409.251,753.159 410.265,753.159 411.28,716.569 412.295,716.569 413.309,710.865 414.324,710.865 415.338,710.865 416.353,710.865 417.367,710.865 418.382,712.653 419.396,698.599 420.411,698.599 421.425,698.599 422.44,698.599 423.454,694.704 424.469,694.704 425.484,694.704 426.498,686.235 427.513,679.478 428.527,678.649 429.542,678.649 430.556,667.394 431.571,615.239 432.585,582.047 433.6,582.047 434.615,601.218 435.629,593.661 436.644,591.131 437.658,591.532 438.673,569.447 439.687,547.68 440.702,562.086 441.716,562.086 442.731,518.237 443.745,521.486 444.76,521.486 445.774,505.866 446.789,505.638 447.804,505.638 448.818,505.638 449.833,528.195 450.847,528.195 451.863,528.195 452.877,530.563 453.892,530.563 454.906,530.563 455.92,518.163 456.934,518.163 457.949,518.163 458.963,516.428 459.978,502.828 460.992,490.531 462.007,490.531 463.022,490.531 464.036,490.531 465.051,490.531 466.065,484.165 467.08,446.132 468.094,446.132 469.11,446.132 470.123,446.132 471.138,461.05 472.153,441.162 473.167,451.734 474.182,451.734 475.196,451.734 476.211,451.734 477.225,427.759 478.24,407.334 479.254,407.334 480.269,407.334 481.284,422.496 482.298,412.355 483.313,412.355 484.327,412.355 485.342,412.355 486.356,387.758 487.371,396.538 488.385,402.255 489.399,391.462 490.415,406.53 491.43,402.14 492.444,385.7 493.458,362.94 494.473,376.689 495.487,383.914 496.502,375.109 497.516,367.265 498.531,395.55 499.545,387.393 500.56,385.408 501.574,372.959 502.589,396.497 503.603,396.497 504.618,396.497 505.632,406.891 506.647,381.364 507.661,384.401 508.676,384.401 509.691,381.751 510.706,392.34 511.72,375.058 512.734,388.102 513.749,388.102 514.763,388.102 515.778,406.392 516.793,406.392 517.807,406.392 518.822,427.709 519.837,427.709 520.851,427.709 521.865,418.565 522.88,418.565 523.894,418.565 524.908,432.346 525.923,432.346 526.938,435.429 527.952,450.86 528.967,450.86 529.982,450.86 530.997,447.164 532.011,447.164 533.025,461.822 534.04,454.105 535.054,455.73 536.069,455.73 537.083,455.73 538.098,455.73 539.113,455.73 540.127,455.181 541.141,455.181 542.156,482.311 543.171,482.311 544.185,477.376 545.199,472.063 546.214,472.063 547.228,487.569 548.243,487.569 549.258,494.635 550.273,507.856 551.288,507.856 552.301,530.487 553.316,525.521 554.33,517.936 555.346,517.936 556.36,517.936 557.374,527.582 558.389,527.582 559.404,527.582 560.418,519.483 561.432,515.303 562.447,540.823 563.461,541.996 564.476,541.996 565.49,557.54 566.505,557.54 567.52,557.54 568.534,557.54 569.549,557.54 570.564,557.54 571.578,557.54 572.593,557.54 573.607,557.54 574.621,600.21 575.636,600.21 576.651,600.21 577.665,600.21 578.68,600.21 579.694,600.21 580.709,600.21 581.723,600.21 582.738,600.21 583.752,618.936 584.767,618.936 585.782,618.936 586.796,650.731 587.811,650.731 588.825,650.731 589.84,650.731 590.855,650.731 591.87,650.731 592.883,672.216 593.898,698.758 594.913,686.637 595.927,694.316 596.942,694.316 597.956,694.316 598.971,694.316 599.985,694.316 600.999,691.658 602.014,691.413 603.028,714.326 604.043,714.155 605.057,716.885 606.072,718.893 607.087,718.893 608.105,728.359 609.116,723.108 610.132,723.108 611.151,710.489 612.161,710.489 613.174,723.079 614.188,736.633 615.206,739.863 616.219,736.784 617.232,736.784 618.247,725.783 619.266,726.634 620.276,726.634 621.29,727.846 622.305,727.846 623.32,727.846 624.334,734.949 625.349,734.949 626.363,734.949 627.378,727.002 628.393,727.002 629.408,726.416 630.423,726.416 631.436,708.261 632.451,716.76 633.465,716.76 634.48,699.95 635.494,699.95 636.509,697.096 637.523,697.096 638.538,703.639 639.552,703.639 640.567,703.639 641.582,703.93 642.596,697.794 643.611,697.794 644.625,697.794 645.64,674.506 646.655,674.506 647.669,674.905 648.684,665.403 649.698,665.403 650.713,672.23 651.728,672.23 652.743,662.576 653.757,662.576 654.771,632.953 655.785,640.068 656.8,640.068 657.814,630.944 658.829,625.914 659.844,595.753 660.858,597.525 661.873,602.66 662.887,595.51 663.902,585.498 664.916,585.498 665.931,589.633 666.945,589.633 667.96,578.968 668.975,578.968 669.989,573.284 671.004,561.125 672.019,531.01 673.034,535.661 674.047,535.661 675.062,500.189 676.077,501.536 677.091,501.536 678.105,501.536 679.12,497.84 680.135,502.607 681.149,501.515 682.164,501.515 683.178,501.515 684.193,501.515 685.207,501.515 686.222,501.515 687.236,492.262 688.251,492.262 689.266,492.262 690.28,442.931 691.295,442.931 692.309,431.292 693.323,419.701 694.339,440.451 695.354,417.633 696.369,417.633 697.382,417.633 698.396,417.633 699.411,417.633 700.425,417.633 701.44,405.941 702.454,405.941 703.469,401.249 704.483,401.249 705.498,401.249 706.513,401.249 707.527,388.935 708.542,388.935 709.557,383.498 710.571,383.498 711.586,383.863 712.6,388.638 713.615,374.629 714.629,365.486 715.645,362.242 716.659,360.069 717.673,360.069 718.687,361.052 719.702,378.998 720.716,372 721.731,362.495 722.745,367.942 723.76,353.159 724.774,355.924 725.789,375.846 726.803,365.423 727.818,370.271 728.834,364.622 729.847,361.555 730.862,386.847 731.876,359.491 732.891,356.537 733.907,356.537 734.921,360.162 735.935,349.35 736.95,349.35 737.964,354.94 738.978,348.98 739.993,348.98 741.007,360.84 742.022,359.307 743.036,359.307 744.051,359.307 745.065,359.307 746.08,370.036 747.094,375.558 748.109,375.558 749.124,371.74 750.138,368.447 751.153,369.638 752.168,369.638 753.184,367.709 754.197,377.265 755.211,377.265 756.226,382.4 757.24,389.224 758.255,389.224 759.269,389.224 760.283,387.279 761.298,387.279 762.313,403.721 763.327,407.353 764.342,407.353 765.356,407.353 766.371,407.353 767.385,407.353 768.4,419.665 769.414,409.561 770.429,434.299 771.443,424.426 772.458,426.565 773.474,423.964 774.488,438.836 775.502,438.836 776.516,437.754 777.531,437.754 778.545,442.757 779.56,451.957 780.574,451.957 781.589,451.957 782.604,482.936 783.618,482.936 784.633,482.936 785.647,471.399 786.662,474.602 787.676,477.147 788.691,476.618 789.705,478.578 790.72,490.458 791.735,474.263 792.749,474.263 793.764,473.054 794.779,474.591 795.794,474.591 796.808,474.591 797.822,480.458 798.836,477.038 799.851,477.038 800.865,477.038 801.88,477.038 802.894,477.038 803.909,486.086 804.923,486.086 805.938,486.086 806.953,508.78 807.967,502.378 808.981,502.378 809.996,521.329 811.011,521.329 812.025,521.329 813.04,521.329 814.054,521.329 815.07,521.329 816.084,521.329 817.099,542.992 818.112,542.992 819.127,560.189 820.142,591.619 821.156,591.619 822.171,591.619 823.185,591.619 824.2,591.619 825.214,591.619 826.229,591.619 827.244,591.619 828.258,591.619 829.273,591.619 830.287,591.619 831.302,591.619 832.316,631.787 833.332,622.581 834.346,622.581 835.361,622.581 836.374,640.178 837.389,640.178 838.404,640.178 839.418,640.178 840.432,647.949 841.448,656.493 842.462,674.726 843.476,674.726 844.491,674.726 845.505,674.726 846.52,674.726 847.535,674.726 848.549,663.206 849.564,665.081 850.579,652.934 851.594,656.852 852.608,656.852 853.622,656.852 854.636,656.852 855.651,657.383 856.665,657.383 857.68,659.005 858.695,659.005 859.709,640.981 860.723,641.158 861.738,641.158 862.753,635.363 863.767,635.363 864.782,638.636 865.796,614.694 866.811,610.057 867.825,610.057 868.84,610.057 869.854,607.938 870.869,607.938 871.885,607.938 872.899,607.938 873.914,596.482 874.929,590.671 875.942,589.539 876.956,574.564 877.971,574.564 878.986,571.806 880,571.806 881.015,560.06 882.029,562.95 883.044,562.95 884.058,562.95 885.072,556.429 886.087,546.196 887.102,545.961 888.116,505.401 889.131,495.753 890.146,495.753 891.16,501.467 892.175,501.467 893.19,480.299 894.205,487.987 895.219,482.907 896.233,464.543 897.248,464.543 898.262,433.004 899.276,421.764 900.291,421.764 901.305,421.764 902.32,421.764 903.334,348.54 904.349,348.54 905.364,376.667 906.378,375.145 907.393,375.145 908.407,375.145 909.422,376.813 910.437,376.813 911.451,381.473 912.466,381.473 913.48,358.597 914.496,358.597 915.51,358.597 916.525,358.597 917.538,311.041 918.553,311.041 919.567,311.041 920.582,320.402 921.596,305.047 922.611,305.047 923.625,311.1 924.64,293.911 925.654,293.911 926.669,310.716 927.684,310.716 928.698,310.716 929.712,310.716 930.727,310.716 931.742,310.716 932.756,310.716 933.771,310.716 934.786,310.716 935.8,310.716 936.816,310.716 937.829,310.716 938.844,281.86 939.858,276.285 940.873,247.999 941.887,261.547 942.902,261.547 943.916,261.547 944.931,245.815 945.945,253.963 946.96,248.702 947.974,246.565 948.989,256.48 950.003,252.483 951.018,243.156 952.033,240.902 953.048,238.196 954.062,256.456 955.077,237.153 956.091,239.863 957.106,234.55 958.12,240.622 959.134,244.812 960.149,244.812 961.163,230.452 962.178,220.835 963.192,220.835 964.207,213.429 965.222,213.429 966.236,213.429 967.251,230.825 968.265,240.754 969.28,239.882 970.294,238.836 971.309,238.836 972.324,254.468 973.338,250.09 974.354,235.115 975.368,244.649 976.382,244.649 977.396,244.649 978.411,252.959 979.426,252.959 980.44,252.959 981.455,252.959 982.469,277.903 983.483,277.903 984.498,277.903 985.512,269.63 986.527,269.63 987.542,262.263 988.556,272.433 989.571,272.433 990.585,272.433 991.6,278.746 992.615,278.746 993.629,277.033 994.643,277.033 995.658,291.725 996.673,291.725 997.689,291.725 998.703,303.873 999.718,303.873 1000.73,303.873 1001.75,316.432 1002.76,321.043 1003.77,321.043 1004.79,321.043 1005.8,321.043 1006.82,321.043 1007.83,328.262 1008.85,316.258 1009.86,342.082 1010.88,344.393 1011.89,350.898 1012.91,351.65 1013.92,335.06 1014.93,335.06 1015.95,366.919 1016.96,366.919 1017.98,398.792 1018.99,383.241 1020.01,377.455 1021.02,354.645 1022.04,372.226 1023.05,372.226 1024.07,372.226 1025.08,383.923 1026.09,383.923 1027.11,383.923 1028.12,395.848 1029.14,404.528 1030.15,404.528 1031.17,404.528 1032.18,417.546 1033.2,440.88 1034.21,440.88 1035.23,440.88 1036.24,440.88 1037.26,440.88 1038.27,440.88 1039.29,440.88 1040.3,447.336 1041.31,447.336 1042.33,447.336 1043.34,447.336 1044.36,447.336 1045.37,447.336 1046.39,447.336 1047.4,486.357 1048.41,486.357 1049.43,486.357 1050.44,486.357 1051.46,499.798 1052.47,499.798 1053.49,516.187 1054.5,516.187 1055.52,516.187 1056.53,516.187 1057.55,516.187 1058.56,516.187 1059.58,516.187 1060.59,521.645 1061.6,534.793 1062.62,545.469 1063.63,565.768 1064.65,565.768 1065.66,560.325 1066.68,565.737 1067.69,573.52 1068.71,573.52 1069.72,569.203 1070.73,566.906 1071.75,553.209 1072.76,553.209 1073.78,566.541 1074.79,550.73 1075.81,528.483 1076.82,539.252 1077.84,539.252 1078.85,525.811 1079.87,541.986 1080.88,540.424 1081.89,548.744 1082.91,549.832 1083.92,534.202 1084.94,534.202 1085.95,537.674 1086.97,537.674 1087.98,537.674 1089,537.674 1090.01,513.997 1091.03,516.701 1092.04,516.701 1093.05,516.701 1094.07,494.708 1095.08,494.708 1096.1,511.465 1097.11,511.465 1098.13,492.321 1099.14,492.321 1100.16,492.321 1101.17,492.321 1102.19,489.461 1103.2,478.314 1104.21,478.314 1105.23,478.314 1106.24,450.033 1107.26,450.56 1108.27,453.754 1109.29,443.759 1110.3,443.759 1111.32,419.932 1112.33,390.899 1113.35,373.188 1114.36,373.188 1115.37,403.092 1116.39,403.092 1117.4,398.35 1118.42,369.648 1119.43,369.648 1120.45,367.643 1121.46,364.662 1122.48,360.032 1123.49,348.01 1124.51,358.656 1125.52,331.548 1126.53,331.548 1127.55,331.548 1128.56,299.287 1129.58,290.298 1130.59,290.298 1131.61,290.298 1132.62,290.298 1133.64,283.766 1134.65,279.913 1135.67,279.913 1136.68,279.913 1137.69,279.913 1138.71,268.897 1139.72,271.738 1140.74,271.738 1141.75,271.738 1142.77,271.738 1143.78,216.309 1144.8,216.309 1145.81,216.309 1146.83,216.309 1147.84,216.309 1148.85,216.309 1149.87,214.086 1150.88,214.086 1151.9,186.182 1152.91,170.304 1153.93,170.304 1154.94,181.809 1155.96,181.809 1156.97,171.173 1157.99,171.173 1159,171.173 1160.01,171.173 1161.03,171.173 1162.04,171.173 1163.06,171.173 1164.07,171.173 1165.09,158.81 1166.1,139.529 1167.12,139.529 1168.13,127.819 1169.15,127.819 1170.16,128.157 1171.17,123.789 1172.19,123.789 1173.2,123.789 1174.22,123.789 1175.23,125.034 1176.25,125.034 1177.26,121.3 1178.28,111.158 1179.29,110.727 1180.31,108.036 1181.32,101.033 1182.33,91.1529 1183.35,90.1118 1184.36,97.4125 1185.38,91.5916 1186.39,99.555 1187.41,99.555 1188.42,99.555 1189.44,99.555 1190.45,99.555 1191.47,98.9323 1192.48,98.9323 1193.49,96.0727 1194.51,89.2578 1195.52,89.2578 1196.54,92.8497 1197.55,92.8497 1198.57,92.8497 1199.58,106.84 1200.6,106.84 1201.61,106.84 1202.63,101.649 1203.64,101.649 1204.65,101.649 1205.67,110.646 1206.68,110.646 1207.7,107.032 1208.71,112.431 1209.73,130.943 1210.74,125.707 1211.76,104.496 1212.77,104.496 1213.79,104.496 1214.8,104.496 1215.81,138.342 1216.83,138.342 1217.84,138.342 1218.86,138.342 1219.87,154.857 1220.89,154.857 1221.9,154.857 1222.92,154.857 1223.93,175.01 1224.95,164.995 1225.96,164.995 1226.97,164.995 1227.99,164.995 1229,165.536 1230.02,183.014 1231.03,183.014 1232.05,205.88 1233.06,192.035 1234.08,192.035 1235.09,192.035 1236.11,192.035 1237.12,192.035 1238.13,223.358 1239.15,223.358 1240.16,232.909 1241.18,232.909 1242.19,229.461 1243.21,241.988 1244.22,246.525 1245.24,246.525 1246.25,246.525 1247.27,236.561 1248.28,264.565 1249.29,264.565 1250.31,273.44 1251.32,275.474 1252.34,275.474 1253.35,275.474 1254.37,275.474 1255.38,287.951 1256.4,287.951 1257.41,287.951 1258.43,296.272 1259.44,296.272 1260.45,296.272 1261.47,296.272 1262.48,327.023 1263.5,327.023 1264.51,327.023 1265.53,327.023 1266.54,351.498 1267.56,351.498 1268.57,339.85 1269.59,360.853 1270.6,360.853 1271.61,360.853 1272.63,360.853 1273.64,360.853 1274.66,388.162 1275.67,395.608 1276.69,395.608 1277.7,387.716 1278.72,387.716 1279.73,393.248 1280.75,403.09 1281.76,403.09 1282.77,403.09 1283.79,403.09 1284.8,403.09 1285.82,403.09 1286.83,403.09 1287.85,415.588 1288.86,419.318 1289.88,419.318 1290.89,442.512 1291.91,442.512 1292.92,442.512 1293.93,426.982 1294.95,448.137 1295.96,448.137 1296.98,453.582 1297.99,442.368 1299.01,448.025 1300.02,462.438 1301.04,460.524 1302.05,460.524 1303.07,460.524 1304.08,460.524 1305.09,460.524 1306.11,459.246 1307.12,459.246 1308.14,459.246 1309.15,459.246 1310.17,435.337 1311.18,435.337 1312.2,438.045 1313.21,459.418 1314.23,459.418 1315.24,459.418 1316.25,459.418 1317.27,444.48 1318.28,444.48 1319.3,438.997 1320.31,420.037 1321.33,420.037 1322.34,426.103 1323.36,426.103 1324.37,409.641 1325.39,411.37 1326.4,411.37 1327.41,411.37 1328.43,411.37 1329.44,393.191 1330.46,393.191 1331.47,384.272 1332.49,387.807 1333.5,389.047 1334.52,389.047 1335.53,366.665 1336.55,357.477 1337.56,354.664 1338.57,354.664 1339.59,349.399 1340.6,349.399 1341.62,332.619 1342.63,332.619 1343.65,332.619 1344.66,332.619 1345.68,301.372 1346.69,298.074 1347.71,315.808 1348.72,277.35 1349.73,278.166 1350.75,281.508 1351.76,281.508 1352.78,281.508 1353.79,260.475 1354.81,260.475 1355.82,260.475 1356.84,260.475 1357.85,241.225 1358.87,241.225 1359.88,225.059 1360.89,225.059 1361.91,225.059 1362.92,221.119 1363.94,221.119 1364.95,221.119 1365.97,207.281 1366.98,207.281 1368,197.844 1369.01,197.844 1370.03,170.508 1371.04,170.508 1372.05,175.924 1373.07,175.924 1374.08,172.396 1375.1,172.396 1376.11,172.396 1377.13,131.212 1378.14,147.652 1379.16,134.689 1380.17,125.163 1381.19,125.163 1382.2,125.163 1383.21,125.163 1384.23,125.163 1385.24,125.163 1386.26,125.163 1387.27,125.163 1388.29,120.432 1389.3,120.432 1390.32,120.432 1391.33,120.432 1392.35,84.1104 1393.36,89.7944 1394.37,84.3765 1395.39,74.8376 1396.4,64.2941 1397.42,77.6173 1398.43,60.4783 1399.45,71.7621 1400.46,71.7621 1401.48,71.7621 1402.49,68.6023 1403.51,68.6023 1404.52,69.8347 1405.53,60.952 1406.55,51.2359 1407.56,44.1348 1408.58,46.6059 1409.59,38.5013 1410.61,54.6835 1411.62,38.866 1412.64,38.866 1413.65,46.4346 1414.67,46.1295 1415.68,40.1466 1416.69,36.005 1417.71,43.8152 1418.72,47.0289 1419.74,47.0289 1420.75,47.0289 1421.77,47.0289 1422.78,46.4091 1423.8,46.4091 1424.81,44.8055 1425.83,26.0238 1426.84,55.3495 1427.85,42.0513 1428.87,42.0513 1429.88,45.396 1430.9,40.8227 1431.91,57.4178 1432.93,42.1075 1433.94,60.681 1434.96,37.2716 1435.97,37.2716 1436.99,60.9238 1438,60.9238 " />
</g>

<g fill="none" stroke="#000000" stroke-opacity="1" stroke-width="1" stroke-linecap="square" stroke-linejoin="bevel" transform="matrix(0.833333,0,0,0.833333,0,0)"
font-family="Ubuntu" font-size="12.2222" font-weight="400" font-style="normal" 
>
</g>

<g fill="none" stroke="#000000" stroke-opacity="1" stroke-width="1" stroke-linecap="square" stroke-linejoin="bevel" transform="matrix(0.833333,0,0,0.833333,0,0)"
font-family="Ubuntu" font-size="12.2222" font-weight="400" font-style="normal" 
>
</g>

<g fill="none" stroke="#000000" stroke-opacity="1" stroke-width="1" stroke-linecap="square" stroke-linejoin="bevel" transform="matrix(0.833333,0,0,0.833333,0,0)"
font-family="Ubuntu" font-size="12.2222" font-weight="400" font-style="normal" 
>
</g>

<g fill="none" stroke="#000000" stroke-opacity="1" stroke-width="1" stroke-linecap="square" stroke-linejoin="bevel" transform="matrix(0.833333,0,0,0.833333,0,0)"
font-family="Ubuntu" font-size="12.2222" font-weight="400" font-style="normal" 
>
</g>

<g fill="none" stroke="#000000" stroke-opacity="1" stroke-width="1" stroke-linecap="square" stroke-linejoin="bevel" transform="matrix(0.833333,0,0,0.833333,0,0)"
font-family="Ubuntu" font-size="12.2222" font-weight="400" font-style="normal" 
>
</g>

<g fill="none" stroke="#000000" stroke-opacity="1" stroke-width="1" stroke-linecap="square" stroke-linejoin="bevel" transform="matrix(0.833333,0,0,0.833333,0,0)"
font-family="Ubuntu" font-size="12.2222" font-weight="400" font-style="normal" 
>
</g>

<g fill="none" stroke="#111111" stroke-opacity="1" stroke-width="1" stroke-linecap="square" stroke-linejoin="bevel" transform="matrix(0.833333,0,0,0.833333,0,0)"
font-family="Ubuntu" font-size="12.2222" font-weight="400" font-style="normal" 
>
<rect x="52" y="10" width="85" height="23"/>
</g>

<g fill="none" stroke="#000000" stroke-opacity="1" stroke-width="1" stroke-linecap="square" stroke-linejoin="bevel" transform="matrix(0.833333,0,0,0.833333,0,0)"
font-family="Ubuntu" font-size="12.2222" font-weight="400" font-style="normal" 
>
</g>

<g fill="none" stroke="#000000" stroke-opacity="1" stroke-width="1" stroke-linecap="square" stroke-linejoin="bevel" transform="matrix(0.833333,0,0,0.833333,0,0)"
font-family="Ubuntu" font-size="12.2222" font-weight="400" font-style="normal" 
>
</g>

<g fill="none" stroke="#000000" stroke-opacity="1" stroke-width="1" stroke-linecap="square" stroke-linejoin="bevel" transform="matrix(0.833333,0,0,0.833333,46.6667,14.1667)"
font-family="Ubuntu" font-size="12.2222" font-weight="400" font-style="normal" 
>
</g>

<g fill="#d62728" fill-opacity="1" stroke="none" transform="matrix(0.833333,0,0,0.833333,0,0)"
font-family="Ubuntu" font-size="12.2222" font-weight="400" font-style="normal" 
>
<path vector-effect="none" fill-rule="evenodd" d="M56,17 L64,17 L64,25 L56,25 L56,17"/>
</g>

<g fill="none" stroke="#000000" stroke-opacity="1" stroke-width="1" stroke-linecap="square" stroke-linejoin="bevel" transform="matrix(0.833333,0,0,0.833333,46.6667,14.1667)"
font-family="Ubuntu" font-size="12.2222" font-weight="400" font-style="normal" 
>
</g>

<g fill="none" stroke="#111111" stroke-opacity="1" stroke-width="1" stroke-linecap="square" stroke-linejoin="bevel" transform="matrix(0.833333,0,0,0.833333,0,0)"
font-family="Ubuntu" font-size="10" font-weight="400" font-style="normal" 
>
</g>

<g fill="none" stroke="#111111" stroke-opacity="1" stroke-width="1" stroke-linecap="square" stroke-linejoin="bevel" transform="matrix(0.833333,0,0,0.833333,0,0)"
font-family="Ubuntu" font-size="12" font-weight="400" font-style="normal" 
>
<text fill="#111111" fill-opacity="1" stroke="none" xml:space="preserve" x="65" y="26" font-family="Ubuntu" font-size="12" font-weight="400" font-style="normal" 
 >/RMSE/data</text>
</g>

<g fill="none" stroke="#111111" stroke-opacity="1" stroke-width="1" stroke-linecap="square" stroke-linejoin="bevel" transform="matrix(0.833333,0,0,0.833333,0,0)"
font-family="Ubuntu" font-size="10" font-weight="400" font-style="normal" 
>
</g>

<g fill="none" stroke="#111111" stroke-opacity="1" stroke-width="1" stroke-linecap="square" stroke-linejoin="bevel" transform="matrix(0.833333,0,0,0.833333,0,0)"
font-family="Ubuntu" font-size="10" font-weight="400" font-style="normal" 
>
</g>

<g fill="none" stroke="#111111" stroke-opacity="1" stroke-width="1" stroke-linecap="square" stroke-linejoin="bevel" transform="matrix(0.833333,0,0,0.833333,0,0)"
font-family="Ubuntu" font-size="10" font-weight="400" font-style="normal" 
>
</g>

<g fill="none" stroke="#111111" stroke-opacity="1" stroke-width="1" stroke-linecap="square" stroke-linejoin="bevel" transform="matrix(0.833333,0,0,0.833333,0,0)"
font-family="Ubuntu" font-size="10" font-weight="400" font-style="normal" 
>
</g>

<g fill="none" stroke="#000000" stroke-opacity="1" stroke-width="1" stroke-linecap="square" stroke-linejoin="bevel" transform="matrix(0.833333,0,0,0.833333,0,0)"
font-family="Ubuntu" font-size="12.2222" font-weight="400" font-style="normal" 
>
</g>

<g fill="#ffffff" fill-opacity="1" stroke="#111111" stroke-opacity="1" stroke-width="1" stroke-linecap="square" stroke-linejoin="bevel" transform="matrix(0.833333,0,0,0.833333,0,0)"
font-family="Ubuntu" font-size="12.2222" font-weight="400" font-style="normal" 
>
<circle cx="10" cy="10" r="5"/>
</g>

<g fill="none" stroke="#000000" stroke-opacity="1" stroke-width="1" stroke-linecap="square" stroke-linejoin="bevel" transform="matrix(0.833333,0,0,0.833333,0,0)"
font-family="Ubuntu" font-size="12.2222" font-weight="400" font-style="normal" 
>
</g>

<g fill="none" stroke="#000000" stroke-opacity="1" stroke-width="1" stroke-linecap="square" stroke-linejoin="bevel" transform="matrix(0.833333,0,0,0.833333,0,0)"
font-family="Ubuntu" font-size="12.2222" font-weight="400" font-style="normal" 
>
</g>

<g fill="none" stroke="#000000" stroke-opacity="1" stroke-width="1" stroke-linecap="square" stroke-linejoin="bevel" transform="matrix(0.833333,0,0,0.833333,0,0)"
font-family="Ubuntu" font-size="12.2222" font-weight="400" font-style="normal" 
>
</g>

<g fill="none" stroke="#111111" stroke-opacity="1" stroke-width="1" stroke-linecap="square" stroke-linejoin="bevel" transform="matrix(0,-0.833333,0.833333,0,0,876.667)"
font-family="Ubuntu" font-size="11.1111" font-weight="400" font-style="normal" 
>
</g>

<g fill="none" stroke="#111111" stroke-opacity="1" stroke-width="1" stroke-linecap="square" stroke-linejoin="bevel" transform="matrix(0,-0.833333,0.833333,0,0,876.667)"
font-family="Ubuntu" font-size="13.3333" font-weight="700" font-style="normal" 
>
</g>

<g fill="none" stroke="#111111" stroke-opacity="1" stroke-width="1" stroke-linecap="square" stroke-linejoin="bevel" transform="matrix(0,-0.833333,0.833333,0,0,876.667)"
font-family="Ubuntu" font-size="13.3333" font-weight="700" font-style="normal" 
>
</g>

<g fill="none" stroke="#111111" stroke-opacity="1" stroke-width="1" stroke-linecap="square" stroke-linejoin="bevel" transform="matrix(0,-0.833333,0.833333,0,0,876.667)"
font-family="Ubuntu" font-size="11.1111" font-weight="400" font-style="normal" 
>
</g>

<g fill="none" stroke="#000000" stroke-opacity="1" stroke-width="1" stroke-linecap="square" stroke-linejoin="bevel" transform="matrix(0.833333,0,0,0.833333,0,0)"
font-family="Ubuntu" font-size="12.2222" font-weight="400" font-style="normal" 
>
</g>

<g fill="none" stroke="#000000" stroke-opacity="1" stroke-width="1" stroke-linecap="square" stroke-linejoin="bevel" transform="matrix(0.833333,0,0,0.833333,0,0)"
font-family="Ubuntu" font-size="11.1111" font-weight="400" font-style="normal" 
>
</g>

<g fill="none" stroke="#000000" stroke-opacity="1" stroke-width="1" stroke-linecap="square" stroke-linejoin="bevel" transform="matrix(0.833333,0,0,0.833333,0,0)"
font-family="Ubuntu" font-size="11.1111" font-weight="400" font-style="normal" 
>
</g>

<g fill="none" stroke="#111111" stroke-opacity="1" stroke-width="1" stroke-linecap="square" stroke-linejoin="bevel" transform="matrix(0.833333,0,0,0.833333,0,0)"
font-family="Ubuntu" font-size="11.1111" font-weight="400" font-style="normal" 
>
</g>

<g fill="none" stroke="#111111" stroke-opacity="1" stroke-width="1" stroke-linecap="square" stroke-linejoin="bevel" transform="matrix(0.833333,0,0,0.833333,15.5599,853.319)"
font-family="Ubuntu" font-size="11.1111" font-weight="400" font-style="normal" 
>
</g>

<g fill="none" stroke="#111111" stroke-opacity="1" stroke-width="1" stroke-linecap="square" stroke-linejoin="bevel" transform="matrix(0.833333,0,0,0.833333,15.5599,853.319)"
font-family="Ubuntu" font-size="13" font-weight="400" font-style="normal" 
>
</g>

<g fill="none" stroke="#111111" stroke-opacity="1" stroke-width="1" stroke-linecap="square" stroke-linejoin="bevel" transform="matrix(0.833333,0,0,0.833333,15.5599,853.319)"
font-family="Ubuntu" font-size="13" font-weight="400" font-style="normal" 
>
</g>

<g fill="none" stroke="#111111" stroke-opacity="1" stroke-width="1" stroke-linecap="square" stroke-linejoin="bevel" transform="matrix(0.833333,0,0,0.833333,15.5599,853.319)"
font-family="Ubuntu" font-size="13" font-weight="400" font-style="normal" 
>
<text fill="#111111" fill-opacity="1" stroke="none" xml:space="preserve" x="0" y="10" font-family="Ubuntu" font-size="13" font-weight="400" font-style="normal" 
 >0</text>
</g>

<g fill="none" stroke="#111111" stroke-opacity="1" stroke-width="1" stroke-linecap="square" stroke-linejoin="bevel" transform="matrix(0.833333,0,0,0.833333,15.5599,853.319)"
font-family="Ubuntu" font-size="13" font-weight="400" font-style="normal" 
>
</g>

<g fill="none" stroke="#111111" stroke-opacity="1" stroke-width="1" stroke-linecap="square" stroke-linejoin="bevel" transform="matrix(0.833333,0,0,0.833333,15.5599,853.319)"
font-family="Ubuntu" font-size="11.1111" font-weight="400" font-style="normal" 
>
</g>

<g fill="none" stroke="#111111" stroke-opacity="1" stroke-width="1" stroke-linecap="square" stroke-linejoin="bevel" transform="matrix(0.833333,0,0,0.833333,15.5599,853.319)"
font-family="Ubuntu" font-size="11.1111" font-weight="400" font-style="normal" 
>
</g>

<g fill="none" stroke="#111111" stroke-opacity="1" stroke-width="1" stroke-linecap="square" stroke-linejoin="bevel" transform="matrix(0.833333,0,0,0.833333,0,0)"
font-family="Ubuntu" font-size="11.1111" font-weight="400" font-style="normal" 
>
</g>

<g fill="none" stroke="#111111" stroke-opacity="1" stroke-width="1" stroke-linecap="square" stroke-linejoin="bevel" transform="matrix(0.833333,0,0,0.833333,0.690104,637.225)"
font-family="Ubuntu" font-size="11.1111" font-weight="400" font-style="normal" 
>
</g>

<g fill="none" stroke="#111111" stroke-opacity="1" stroke-width="1" stroke-linecap="square" stroke-linejoin="bevel" transform="matrix(0.833333,0,0,0.833333,0.690104,637.225)"
font-family="Ubuntu" font-size="13" font-weight="400" font-style="normal" 
>
</g>

<g fill="none" stroke="#111111" stroke-opacity="1" stroke-width="1" stroke-linecap="square" stroke-linejoin="bevel" transform="matrix(0.833333,0,0,0.833333,0.690104,637.225)"
font-family="Ubuntu" font-size="13" font-weight="400" font-style="normal" 
>
</g>

<g fill="none" stroke="#111111" stroke-opacity="1" stroke-width="1" stroke-linecap="square" stroke-linejoin="bevel" transform="matrix(0.833333,0,0,0.833333,0.690104,637.225)"
font-family="Ubuntu" font-size="13" font-weight="400" font-style="normal" 
>
<text fill="#111111" fill-opacity="1" stroke="none" xml:space="preserve" x="0" y="10" font-family="Ubuntu" font-size="13" font-weight="400" font-style="normal" 
 >0.05</text>
</g>

<g fill="none" stroke="#111111" stroke-opacity="1" stroke-width="1" stroke-linecap="square" stroke-linejoin="bevel" transform="matrix(0.833333,0,0,0.833333,0.690104,637.225)"
font-family="Ubuntu" font-size="13" font-weight="400" font-style="normal" 
>
</g>

<g fill="none" stroke="#111111" stroke-opacity="1" stroke-width="1" stroke-linecap="square" stroke-linejoin="bevel" transform="matrix(0.833333,0,0,0.833333,0.690104,637.225)"
font-family="Ubuntu" font-size="11.1111" font-weight="400" font-style="normal" 
>
</g>

<g fill="none" stroke="#111111" stroke-opacity="1" stroke-width="1" stroke-linecap="square" stroke-linejoin="bevel" transform="matrix(0.833333,0,0,0.833333,0.690104,637.225)"
font-family="Ubuntu" font-size="11.1111" font-weight="400" font-style="normal" 
>
</g>

<g fill="none" stroke="#111111" stroke-opacity="1" stroke-width="1" stroke-linecap="square" stroke-linejoin="bevel" transform="matrix(0.833333,0,0,0.833333,0,0)"
font-family="Ubuntu" font-size="11.1111" font-weight="400" font-style="normal" 
>
</g>

<g fill="none" stroke="#111111" stroke-opacity="1" stroke-width="1" stroke-linecap="square" stroke-linejoin="bevel" transform="matrix(0.833333,0,0,0.833333,6.79688,421.132)"
font-family="Ubuntu" font-size="11.1111" font-weight="400" font-style="normal" 
>
</g>

<g fill="none" stroke="#111111" stroke-opacity="1" stroke-width="1" stroke-linecap="square" stroke-linejoin="bevel" transform="matrix(0.833333,0,0,0.833333,6.79688,421.132)"
font-family="Ubuntu" font-size="13" font-weight="400" font-style="normal" 
>
</g>

<g fill="none" stroke="#111111" stroke-opacity="1" stroke-width="1" stroke-linecap="square" stroke-linejoin="bevel" transform="matrix(0.833333,0,0,0.833333,6.79688,421.132)"
font-family="Ubuntu" font-size="13" font-weight="400" font-style="normal" 
>
<text fill="#111111" fill-opacity="1" stroke="none" xml:space="preserve" x="0" y="10" font-family="Ubuntu" font-size="13" font-weight="400" font-style="normal" 
 >0.1</text>
</g>

<g fill="none" stroke="#111111" stroke-opacity="1" stroke-width="1" stroke-linecap="square" stroke-linejoin="bevel" transform="matrix(0.833333,0,0,0.833333,6.79688,421.132)"
font-family="Ubuntu" font-size="11.1111" font-weight="400" font-style="normal" 
>
</g>

<g fill="none" stroke="#111111" stroke-opacity="1" stroke-width="1" stroke-linecap="square" stroke-linejoin="bevel" transform="matrix(0.833333,0,0,0.833333,6.79688,421.132)"
font-family="Ubuntu" font-size="11.1111" font-weight="400" font-style="normal" 
>
</g>

<g fill="none" stroke="#111111" stroke-opacity="1" stroke-width="1" stroke-linecap="square" stroke-linejoin="bevel" transform="matrix(0.833333,0,0,0.833333,0,0)"
font-family="Ubuntu" font-size="11.1111" font-weight="400" font-style="normal" 
>
</g>

<g fill="none" stroke="#111111" stroke-opacity="1" stroke-width="1" stroke-linecap="square" stroke-linejoin="bevel" transform="matrix(0.833333,0,0,0.833333,0.690104,205.038)"
font-family="Ubuntu" font-size="11.1111" font-weight="400" font-style="normal" 
>
</g>

<g fill="none" stroke="#111111" stroke-opacity="1" stroke-width="1" stroke-linecap="square" stroke-linejoin="bevel" transform="matrix(0.833333,0,0,0.833333,0.690104,205.038)"
font-family="Ubuntu" font-size="13" font-weight="400" font-style="normal" 
>
</g>

<g fill="none" stroke="#111111" stroke-opacity="1" stroke-width="1" stroke-linecap="square" stroke-linejoin="bevel" transform="matrix(0.833333,0,0,0.833333,0.690104,205.038)"
font-family="Ubuntu" font-size="13" font-weight="400" font-style="normal" 
>
</g>

<g fill="none" stroke="#111111" stroke-opacity="1" stroke-width="1" stroke-linecap="square" stroke-linejoin="bevel" transform="matrix(0.833333,0,0,0.833333,0.690104,205.038)"
font-family="Ubuntu" font-size="13" font-weight="400" font-style="normal" 
>
<text fill="#111111" fill-opacity="1" stroke="none" xml:space="preserve" x="0" y="10" font-family="Ubuntu" font-size="13" font-weight="400" font-style="normal" 
 >0.15</text>
</g>

<g fill="none" stroke="#111111" stroke-opacity="1" stroke-width="1" stroke-linecap="square" stroke-linejoin="bevel" transform="matrix(0.833333,0,0,0.833333,0.690104,205.038)"
font-family="Ubuntu" font-size="13" font-weight="400" font-style="normal" 
>
</g>

<g fill="none" stroke="#111111" stroke-opacity="1" stroke-width="1" stroke-linecap="square" stroke-linejoin="bevel" transform="matrix(0.833333,0,0,0.833333,0.690104,205.038)"
font-family="Ubuntu" font-size="11.1111" font-weight="400" font-style="normal" 
>
</g>

<g fill="none" stroke="#111111" stroke-opacity="1" stroke-width="1" stroke-linecap="square" stroke-linejoin="bevel" transform="matrix(0.833333,0,0,0.833333,0.690104,205.038)"
font-family="Ubuntu" font-size="11.1111" font-weight="400" font-style="normal" 
>
</g>

<g fill="none" stroke="#111111" stroke-opacity="1" stroke-width="1" stroke-linecap="square" stroke-linejoin="bevel" transform="matrix(0.833333,0,0,0.833333,0,0)"
font-family="Ubuntu" font-size="11.1111" font-weight="400" font-style="normal" 
>
</g>

<g fill="none" stroke="#000000" stroke-opacity="1" stroke-width="1" stroke-linecap="square" stroke-linejoin="bevel" transform="matrix(0.833333,0,0,0.833333,0,0)"
font-family="Ubuntu" font-size="11.1111" font-weight="400" font-style="normal" 
>
</g>

<g fill="none" stroke="#111111" stroke-opacity="1" stroke-width="1" stroke-linecap="butt" stroke-linejoin="bevel" transform="matrix(0.833333,0,0,0.833333,0,0)"
font-family="Ubuntu" font-size="11.1111" font-weight="400" font-style="normal" 
>
<polyline fill="none" vector-effect="non-scaling-stroke" points="39.5,977.12 34.3,977.12 " />
<polyline fill="none" vector-effect="non-scaling-stroke" points="39.5,925.258 34.3,925.258 " />
<polyline fill="none" vector-effect="non-scaling-stroke" points="39.5,873.395 34.3,873.395 " />
<polyline fill="none" vector-effect="non-scaling-stroke" points="39.5,821.533 34.3,821.533 " />
<polyline fill="none" vector-effect="non-scaling-stroke" points="39.5,717.808 34.3,717.808 " />
<polyline fill="none" vector-effect="non-scaling-stroke" points="39.5,665.945 34.3,665.945 " />
<polyline fill="none" vector-effect="non-scaling-stroke" points="39.5,614.083 34.3,614.083 " />
<polyline fill="none" vector-effect="non-scaling-stroke" points="39.5,562.22 34.3,562.22 " />
<polyline fill="none" vector-effect="non-scaling-stroke" points="39.5,458.495 34.3,458.495 " />
<polyline fill="none" vector-effect="non-scaling-stroke" points="39.5,406.633 34.3,406.633 " />
<polyline fill="none" vector-effect="non-scaling-stroke" points="39.5,354.771 34.3,354.771 " />
<polyline fill="none" vector-effect="non-scaling-stroke" points="39.5,302.908 34.3,302.908 " />
<polyline fill="none" vector-effect="non-scaling-stroke" points="39.5,199.183 34.3,199.183 " />
<polyline fill="none" vector-effect="non-scaling-stroke" points="39.5,147.321 34.3,147.321 " />
<polyline fill="none" vector-effect="non-scaling-stroke" points="39.5,95.4581 34.3,95.4581 " />
<polyline fill="none" vector-effect="non-scaling-stroke" points="39.5,43.5956 34.3,43.5956 " />
<polyline fill="none" vector-effect="non-scaling-stroke" points="39.5,1028.98 30.3,1028.98 " />
<polyline fill="none" vector-effect="non-scaling-stroke" points="39.5,769.67 30.3,769.67 " />
<polyline fill="none" vector-effect="non-scaling-stroke" points="39.5,510.358 30.3,510.358 " />
<polyline fill="none" vector-effect="non-scaling-stroke" points="39.5,251.046 30.3,251.046 " />
</g>

<g fill="none" stroke="#000000" stroke-opacity="1" stroke-width="1" stroke-linecap="square" stroke-linejoin="bevel" transform="matrix(0.833333,0,0,0.833333,0,0)"
font-family="Ubuntu" font-size="11.1111" font-weight="400" font-style="normal" 
>
</g>

<g fill="none" stroke="#111111" stroke-opacity="1" stroke-width="1" stroke-linecap="butt" stroke-linejoin="bevel" transform="matrix(0.833333,0,0,0.833333,0,0)"
font-family="Ubuntu" font-size="11.1111" font-weight="400" font-style="normal" 
>
<polyline fill="none" vector-effect="non-scaling-stroke" points="39.4,1 39.4,1052 " />
</g>

<g fill="none" stroke="#000000" stroke-opacity="1" stroke-width="1" stroke-linecap="square" stroke-linejoin="bevel" transform="matrix(0.833333,0,0,0.833333,0,0)"
font-family="Ubuntu" font-size="11.1111" font-weight="400" font-style="normal" 
>
</g>

<g fill="none" stroke="#000000" stroke-opacity="1" stroke-width="1" stroke-linecap="square" stroke-linejoin="bevel" transform="matrix(0.833333,0,0,0.833333,0,0)"
font-family="Ubuntu" font-size="11.1111" font-weight="400" font-style="normal" 
>
</g>

<g fill="none" stroke="#000000" stroke-opacity="1" stroke-width="1" stroke-linecap="square" stroke-linejoin="bevel" transform="matrix(0.833333,0,0,0.833333,0,0)"
font-family="Ubuntu" font-size="12.2222" font-weight="400" font-style="normal" 
>
</g>

<g fill="none" stroke="#111111" stroke-opacity="1" stroke-width="1" stroke-linecap="square" stroke-linejoin="bevel" transform="matrix(0.833333,0,0,0.833333,32.5,900.833)"
font-family="Ubuntu" font-size="11.1111" font-weight="400" font-style="normal" 
>
</g>

<g fill="none" stroke="#111111" stroke-opacity="1" stroke-width="1" stroke-linecap="square" stroke-linejoin="bevel" transform="matrix(0.833333,0,0,0.833333,32.5,900.833)"
font-family="Ubuntu" font-size="13.3333" font-weight="700" font-style="normal" 
>
</g>

<g fill="none" stroke="#111111" stroke-opacity="1" stroke-width="1" stroke-linecap="square" stroke-linejoin="bevel" transform="matrix(0.833333,0,0,0.833333,32.5,900.833)"
font-family="Ubuntu" font-size="13.3333" font-weight="700" font-style="normal" 
>
</g>

<g fill="none" stroke="#111111" stroke-opacity="1" stroke-width="1" stroke-linecap="square" stroke-linejoin="bevel" transform="matrix(0.833333,0,0,0.833333,32.5,900.833)"
font-family="Ubuntu" font-size="11.1111" font-weight="400" font-style="normal" 
>
</g>

<g fill="none" stroke="#000000" stroke-opacity="1" stroke-width="1" stroke-linecap="square" stroke-linejoin="bevel" transform="matrix(0.833333,0,0,0.833333,0,0)"
font-family="Ubuntu" font-size="12.2222" font-weight="400" font-style="normal" 
>
</g>

<g fill="none" stroke="#000000" stroke-opacity="1" stroke-width="1" stroke-linecap="square" stroke-linejoin="bevel" transform="matrix(0.833333,0,0,0.833333,0,0)"
font-family="Ubuntu" font-size="11.1111" font-weight="400" font-style="normal" 
>
</g>

<g fill="none" stroke="#000000" stroke-opacity="1" stroke-width="1" stroke-linecap="square" stroke-linejoin="bevel" transform="matrix(0.833333,0,0,0.833333,0,0)"
font-family="Ubuntu" font-size="11.1111" font-weight="400" font-style="normal" 
>
</g>

<g fill="none" stroke="#111111" stroke-opacity="1" stroke-width="1" stroke-linecap="square" stroke-linejoin="bevel" transform="matrix(0.833333,0,0,0.833333,0,0)"
font-family="Ubuntu" font-size="11.1111" font-weight="400" font-style="normal" 
>
</g>

<g fill="none" stroke="#111111" stroke-opacity="1" stroke-width="1" stroke-linecap="square" stroke-linejoin="bevel" transform="matrix(0.833333,0,0,0.833333,32.7799,890.833)"
font-family="Ubuntu" font-size="11.1111" font-weight="400" font-style="normal" 
>
</g>

<g fill="none" stroke="#111111" stroke-opacity="1" stroke-width="1" stroke-linecap="square" stroke-linejoin="bevel" transform="matrix(0.833333,0,0,0.833333,32.7799,890.833)"
font-family="Ubuntu" font-size="13" font-weight="400" font-style="normal" 
>
</g>

<g fill="none" stroke="#111111" stroke-opacity="1" stroke-width="1" stroke-linecap="square" stroke-linejoin="bevel" transform="matrix(0.833333,0,0,0.833333,32.7799,890.833)"
font-family="Ubuntu" font-size="13" font-weight="400" font-style="normal" 
>
</g>

<g fill="none" stroke="#111111" stroke-opacity="1" stroke-width="1" stroke-linecap="square" stroke-linejoin="bevel" transform="matrix(0.833333,0,0,0.833333,32.7799,890.833)"
font-family="Ubuntu" font-size="13" font-weight="400" font-style="normal" 
>
<text fill="#111111" fill-opacity="1" stroke="none" xml:space="preserve" x="0" y="10" font-family="Ubuntu" font-size="13" font-weight="400" font-style="normal" 
 >0</text>
</g>

<g fill="none" stroke="#111111" stroke-opacity="1" stroke-width="1" stroke-linecap="square" stroke-linejoin="bevel" transform="matrix(0.833333,0,0,0.833333,32.7799,890.833)"
font-family="Ubuntu" font-size="13" font-weight="400" font-style="normal" 
>
</g>

<g fill="none" stroke="#111111" stroke-opacity="1" stroke-width="1" stroke-linecap="square" stroke-linejoin="bevel" transform="matrix(0.833333,0,0,0.833333,32.7799,890.833)"
font-family="Ubuntu" font-size="11.1111" font-weight="400" font-style="normal" 
>
</g>

<g fill="none" stroke="#111111" stroke-opacity="1" stroke-width="1" stroke-linecap="square" stroke-linejoin="bevel" transform="matrix(0.833333,0,0,0.833333,32.7799,890.833)"
font-family="Ubuntu" font-size="11.1111" font-weight="400" font-style="normal" 
>
</g>

<g fill="none" stroke="#111111" stroke-opacity="1" stroke-width="1" stroke-linecap="square" stroke-linejoin="bevel" transform="matrix(0.833333,0,0,0.833333,0,0)"
font-family="Ubuntu" font-size="11.1111" font-weight="400" font-style="normal" 
>
</g>

<g fill="none" stroke="#111111" stroke-opacity="1" stroke-width="1" stroke-linecap="square" stroke-linejoin="bevel" transform="matrix(0.833333,0,0,0.833333,241.09,890.833)"
font-family="Ubuntu" font-size="11.1111" font-weight="400" font-style="normal" 
>
</g>

<g fill="none" stroke="#111111" stroke-opacity="1" stroke-width="1" stroke-linecap="square" stroke-linejoin="bevel" transform="matrix(0.833333,0,0,0.833333,241.09,890.833)"
font-family="Ubuntu" font-size="13" font-weight="400" font-style="normal" 
>
</g>

<g fill="none" stroke="#111111" stroke-opacity="1" stroke-width="1" stroke-linecap="square" stroke-linejoin="bevel" transform="matrix(0.833333,0,0,0.833333,241.09,890.833)"
font-family="Ubuntu" font-size="13" font-weight="400" font-style="normal" 
>
<text fill="#111111" fill-opacity="1" stroke="none" xml:space="preserve" x="0" y="10" font-family="Ubuntu" font-size="13" font-weight="400" font-style="normal" 
 >50</text>
</g>

<g fill="none" stroke="#111111" stroke-opacity="1" stroke-width="1" stroke-linecap="square" stroke-linejoin="bevel" transform="matrix(0.833333,0,0,0.833333,241.09,890.833)"
font-family="Ubuntu" font-size="11.1111" font-weight="400" font-style="normal" 
>
</g>

<g fill="none" stroke="#111111" stroke-opacity="1" stroke-width="1" stroke-linecap="square" stroke-linejoin="bevel" transform="matrix(0.833333,0,0,0.833333,241.09,890.833)"
font-family="Ubuntu" font-size="11.1111" font-weight="400" font-style="normal" 
>
</g>

<g fill="none" stroke="#111111" stroke-opacity="1" stroke-width="1" stroke-linecap="square" stroke-linejoin="bevel" transform="matrix(0.833333,0,0,0.833333,0,0)"
font-family="Ubuntu" font-size="11.1111" font-weight="400" font-style="normal" 
>
</g>

<g fill="none" stroke="#111111" stroke-opacity="1" stroke-width="1" stroke-linecap="square" stroke-linejoin="bevel" transform="matrix(0.833333,0,0,0.833333,449.4,890.833)"
font-family="Ubuntu" font-size="11.1111" font-weight="400" font-style="normal" 
>
</g>

<g fill="none" stroke="#111111" stroke-opacity="1" stroke-width="1" stroke-linecap="square" stroke-linejoin="bevel" transform="matrix(0.833333,0,0,0.833333,449.4,890.833)"
font-family="Ubuntu" font-size="13" font-weight="400" font-style="normal" 
>
</g>

<g fill="none" stroke="#111111" stroke-opacity="1" stroke-width="1" stroke-linecap="square" stroke-linejoin="bevel" transform="matrix(0.833333,0,0,0.833333,449.4,890.833)"
font-family="Ubuntu" font-size="13" font-weight="400" font-style="normal" 
>
<text fill="#111111" fill-opacity="1" stroke="none" xml:space="preserve" x="0" y="10" font-family="Ubuntu" font-size="13" font-weight="400" font-style="normal" 
 >100</text>
</g>

<g fill="none" stroke="#111111" stroke-opacity="1" stroke-width="1" stroke-linecap="square" stroke-linejoin="bevel" transform="matrix(0.833333,0,0,0.833333,449.4,890.833)"
font-family="Ubuntu" font-size="11.1111" font-weight="400" font-style="normal" 
>
</g>

<g fill="none" stroke="#111111" stroke-opacity="1" stroke-width="1" stroke-linecap="square" stroke-linejoin="bevel" transform="matrix(0.833333,0,0,0.833333,449.4,890.833)"
font-family="Ubuntu" font-size="11.1111" font-weight="400" font-style="normal" 
>
</g>

<g fill="none" stroke="#111111" stroke-opacity="1" stroke-width="1" stroke-linecap="square" stroke-linejoin="bevel" transform="matrix(0.833333,0,0,0.833333,0,0)"
font-family="Ubuntu" font-size="11.1111" font-weight="400" font-style="normal" 
>
</g>

<g fill="none" stroke="#111111" stroke-opacity="1" stroke-width="1" stroke-linecap="square" stroke-linejoin="bevel" transform="matrix(0.833333,0,0,0.833333,660.764,890.833)"
font-family="Ubuntu" font-size="11.1111" font-weight="400" font-style="normal" 
>
</g>

<g fill="none" stroke="#111111" stroke-opacity="1" stroke-width="1" stroke-linecap="square" stroke-linejoin="bevel" transform="matrix(0.833333,0,0,0.833333,660.764,890.833)"
font-family="Ubuntu" font-size="13" font-weight="400" font-style="normal" 
>
</g>

<g fill="none" stroke="#111111" stroke-opacity="1" stroke-width="1" stroke-linecap="square" stroke-linejoin="bevel" transform="matrix(0.833333,0,0,0.833333,660.764,890.833)"
font-family="Ubuntu" font-size="13" font-weight="400" font-style="normal" 
>
<text fill="#111111" fill-opacity="1" stroke="none" xml:space="preserve" x="0" y="10" font-family="Ubuntu" font-size="13" font-weight="400" font-style="normal" 
 >150</text>
</g>

<g fill="none" stroke="#111111" stroke-opacity="1" stroke-width="1" stroke-linecap="square" stroke-linejoin="bevel" transform="matrix(0.833333,0,0,0.833333,660.764,890.833)"
font-family="Ubuntu" font-size="11.1111" font-weight="400" font-style="normal" 
>
</g>

<g fill="none" stroke="#111111" stroke-opacity="1" stroke-width="1" stroke-linecap="square" stroke-linejoin="bevel" transform="matrix(0.833333,0,0,0.833333,660.764,890.833)"
font-family="Ubuntu" font-size="11.1111" font-weight="400" font-style="normal" 
>
</g>

<g fill="none" stroke="#111111" stroke-opacity="1" stroke-width="1" stroke-linecap="square" stroke-linejoin="bevel" transform="matrix(0.833333,0,0,0.833333,0,0)"
font-family="Ubuntu" font-size="11.1111" font-weight="400" font-style="normal" 
>
</g>

<g fill="none" stroke="#111111" stroke-opacity="1" stroke-width="1" stroke-linecap="square" stroke-linejoin="bevel" transform="matrix(0.833333,0,0,0.833333,872.128,890.833)"
font-family="Ubuntu" font-size="11.1111" font-weight="400" font-style="normal" 
>
</g>

<g fill="none" stroke="#111111" stroke-opacity="1" stroke-width="1" stroke-linecap="square" stroke-linejoin="bevel" transform="matrix(0.833333,0,0,0.833333,872.128,890.833)"
font-family="Ubuntu" font-size="13" font-weight="400" font-style="normal" 
>
</g>

<g fill="none" stroke="#111111" stroke-opacity="1" stroke-width="1" stroke-linecap="square" stroke-linejoin="bevel" transform="matrix(0.833333,0,0,0.833333,872.128,890.833)"
font-family="Ubuntu" font-size="13" font-weight="400" font-style="normal" 
>
<text fill="#111111" fill-opacity="1" stroke="none" xml:space="preserve" x="0" y="10" font-family="Ubuntu" font-size="13" font-weight="400" font-style="normal" 
 >200</text>
</g>

<g fill="none" stroke="#111111" stroke-opacity="1" stroke-width="1" stroke-linecap="square" stroke-linejoin="bevel" transform="matrix(0.833333,0,0,0.833333,872.128,890.833)"
font-family="Ubuntu" font-size="11.1111" font-weight="400" font-style="normal" 
>
</g>

<g fill="none" stroke="#111111" stroke-opacity="1" stroke-width="1" stroke-linecap="square" stroke-linejoin="bevel" transform="matrix(0.833333,0,0,0.833333,872.128,890.833)"
font-family="Ubuntu" font-size="11.1111" font-weight="400" font-style="normal" 
>
</g>

<g fill="none" stroke="#111111" stroke-opacity="1" stroke-width="1" stroke-linecap="square" stroke-linejoin="bevel" transform="matrix(0.833333,0,0,0.833333,0,0)"
font-family="Ubuntu" font-size="11.1111" font-weight="400" font-style="normal" 
>
</g>

<g fill="none" stroke="#111111" stroke-opacity="1" stroke-width="1" stroke-linecap="square" stroke-linejoin="bevel" transform="matrix(0.833333,0,0,0.833333,1083.49,890.833)"
font-family="Ubuntu" font-size="11.1111" font-weight="400" font-style="normal" 
>
</g>

<g fill="none" stroke="#111111" stroke-opacity="1" stroke-width="1" stroke-linecap="square" stroke-linejoin="bevel" transform="matrix(0.833333,0,0,0.833333,1083.49,890.833)"
font-family="Ubuntu" font-size="13" font-weight="400" font-style="normal" 
>
</g>

<g fill="none" stroke="#111111" stroke-opacity="1" stroke-width="1" stroke-linecap="square" stroke-linejoin="bevel" transform="matrix(0.833333,0,0,0.833333,1083.49,890.833)"
font-family="Ubuntu" font-size="13" font-weight="400" font-style="normal" 
>
<text fill="#111111" fill-opacity="1" stroke="none" xml:space="preserve" x="0" y="10" font-family="Ubuntu" font-size="13" font-weight="400" font-style="normal" 
 >250</text>
</g>

<g fill="none" stroke="#111111" stroke-opacity="1" stroke-width="1" stroke-linecap="square" stroke-linejoin="bevel" transform="matrix(0.833333,0,0,0.833333,1083.49,890.833)"
font-family="Ubuntu" font-size="11.1111" font-weight="400" font-style="normal" 
>
</g>

<g fill="none" stroke="#111111" stroke-opacity="1" stroke-width="1" stroke-linecap="square" stroke-linejoin="bevel" transform="matrix(0.833333,0,0,0.833333,1083.49,890.833)"
font-family="Ubuntu" font-size="11.1111" font-weight="400" font-style="normal" 
>
</g>

<g fill="none" stroke="#111111" stroke-opacity="1" stroke-width="1" stroke-linecap="square" stroke-linejoin="bevel" transform="matrix(0.833333,0,0,0.833333,0,0)"
font-family="Ubuntu" font-size="11.1111" font-weight="400" font-style="normal" 
>
</g>

<g fill="none" stroke="#000000" stroke-opacity="1" stroke-width="1" stroke-linecap="square" stroke-linejoin="bevel" transform="matrix(0.833333,0,0,0.833333,0,0)"
font-family="Ubuntu" font-size="11.1111" font-weight="400" font-style="normal" 
>
</g>

<g fill="none" stroke="#111111" stroke-opacity="1" stroke-width="1" stroke-linecap="butt" stroke-linejoin="bevel" transform="matrix(0.833333,0,0,0.833333,0,0)"
font-family="Ubuntu" font-size="11.1111" font-weight="400" font-style="normal" 
>
<polyline fill="none" vector-effect="non-scaling-stroke" points="93.7273,1055.5 93.7273,1060.7 " />
<polyline fill="none" vector-effect="non-scaling-stroke" points="144.455,1055.5 144.455,1060.7 " />
<polyline fill="none" vector-effect="non-scaling-stroke" points="195.182,1055.5 195.182,1060.7 " />
<polyline fill="none" vector-effect="non-scaling-stroke" points="245.909,1055.5 245.909,1060.7 " />
<polyline fill="none" vector-effect="non-scaling-stroke" points="347.364,1055.5 347.364,1060.7 " />
<polyline fill="none" vector-effect="non-scaling-stroke" points="398.091,1055.5 398.091,1060.7 " />
<polyline fill="none" vector-effect="non-scaling-stroke" points="448.818,1055.5 448.818,1060.7 " />
<polyline fill="none" vector-effect="non-scaling-stroke" points="499.545,1055.5 499.545,1060.7 " />
<polyline fill="none" vector-effect="non-scaling-stroke" points="601,1055.5 601,1060.7 " />
<polyline fill="none" vector-effect="non-scaling-stroke" points="651.727,1055.5 651.727,1060.7 " />
<polyline fill="none" vector-effect="non-scaling-stroke" points="702.454,1055.5 702.454,1060.7 " />
<polyline fill="none" vector-effect="non-scaling-stroke" points="753.182,1055.5 753.182,1060.7 " />
<polyline fill="none" vector-effect="non-scaling-stroke" points="854.636,1055.5 854.636,1060.7 " />
<polyline fill="none" vector-effect="non-scaling-stroke" points="905.364,1055.5 905.364,1060.7 " />
<polyline fill="none" vector-effect="non-scaling-stroke" points="956.091,1055.5 956.091,1060.7 " />
<polyline fill="none" vector-effect="non-scaling-stroke" points="1006.82,1055.5 1006.82,1060.7 " />
<polyline fill="none" vector-effect="non-scaling-stroke" points="1108.27,1055.5 1108.27,1060.7 " />
<polyline fill="none" vector-effect="non-scaling-stroke" points="1159,1055.5 1159,1060.7 " />
<polyline fill="none" vector-effect="non-scaling-stroke" points="1209.73,1055.5 1209.73,1060.7 " />
<polyline fill="none" vector-effect="non-scaling-stroke" points="1260.45,1055.5 1260.45,1060.7 " />
<polyline fill="none" vector-effect="non-scaling-stroke" points="1361.91,1055.5 1361.91,1060.7 " />
<polyline fill="none" vector-effect="non-scaling-stroke" points="1412.64,1055.5 1412.64,1060.7 " />
<polyline fill="none" vector-effect="non-scaling-stroke" points="43,1055.5 43,1064.7 " />
<polyline fill="none" vector-effect="non-scaling-stroke" points="296.636,1055.5 296.636,1064.7 " />
<polyline fill="none" vector-effect="non-scaling-stroke" points="550.273,1055.5 550.273,1064.7 " />
<polyline fill="none" vector-effect="non-scaling-stroke" points="803.909,1055.5 803.909,1064.7 " />
<polyline fill="none" vector-effect="non-scaling-stroke" points="1057.55,1055.5 1057.55,1064.7 " />
<polyline fill="none" vector-effect="non-scaling-stroke" points="1311.18,1055.5 1311.18,1064.7 " />
</g>

<g fill="none" stroke="#000000" stroke-opacity="1" stroke-width="1" stroke-linecap="square" stroke-linejoin="bevel" transform="matrix(0.833333,0,0,0.833333,0,0)"
font-family="Ubuntu" font-size="11.1111" font-weight="400" font-style="normal" 
>
</g>

<g fill="none" stroke="#111111" stroke-opacity="1" stroke-width="1" stroke-linecap="butt" stroke-linejoin="bevel" transform="matrix(0.833333,0,0,0.833333,0,0)"
font-family="Ubuntu" font-size="11.1111" font-weight="400" font-style="normal" 
>
<polyline fill="none" vector-effect="non-scaling-stroke" points="43,1055.6 1438,1055.6 " />
</g>

<g fill="none" stroke="#000000" stroke-opacity="1" stroke-width="1" stroke-linecap="square" stroke-linejoin="bevel" transform="matrix(0.833333,0,0,0.833333,0,0)"
font-family="Ubuntu" font-size="11.1111" font-weight="400" font-style="normal" 
>
</g>

<g fill="none" stroke="#000000" stroke-opacity="1" stroke-width="1" stroke-linecap="square" stroke-linejoin="bevel" transform="matrix(0.833333,0,0,0.833333,0,0)"
font-family="Ubuntu" font-size="11.1111" font-weight="400" font-style="normal" 
>
</g>

<g fill="none" stroke="#000000" stroke-opacity="1" stroke-width="1" stroke-linecap="square" stroke-linejoin="bevel" transform="matrix(0.833333,0,0,0.833333,0,0)"
font-family="Ubuntu" font-size="12.2222" font-weight="400" font-style="normal" 
>
</g>

<g fill="none" stroke="#000000" stroke-opacity="1" stroke-width="1" stroke-linecap="square" stroke-linejoin="bevel" transform="matrix(1,0,0,1,0,0)"
font-family="Ubuntu" font-size="12.2222" font-weight="400" font-style="normal" 
>
</g>
</g>
</svg>
